<svg width="386" height="250" viewBox="0 0 386 250" fill="none" xmlns="http://www.w3.org/2000/svg">
<path fill-rule="evenodd" clip-rule="evenodd" d="M212.234 52.738C231.107 52.738 246.407 68.0357 246.407 86.9064C246.407 105.777 231.107 121.075 212.234 121.075V123.653H212.228V239.331C212.186 240.541 212.164 241.754 212.164 242.969L212.228 242.969H264.839L264.909 242.969C264.909 215.448 283.568 199.662 299.082 199.662C314.596 199.662 333.255 215.448 333.255 242.969H386C386 193.528 350.445 146.924 299.082 146.924C288.327 146.924 278.266 148.967 269.079 152.652C287.498 136.716 299.152 113.172 299.152 86.9064C299.152 38.9093 260.237 0 212.234 0V52.738ZM133.579 234.877C119.827 244.412 103.129 250 85.1262 250C38.1123 250 0 211.893 0 164.885C0 117.877 38.1123 79.7701 85.1262 79.7701C103.129 79.7701 119.827 85.3579 133.579 94.8935V0.477042H184.733V242.969H133.579V234.877ZM85.1262 197.262C103.01 197.262 117.507 182.766 117.507 164.885C117.507 147.004 103.01 132.508 85.1262 132.508C67.2426 132.508 52.745 147.004 52.745 164.885C52.745 182.766 67.2426 197.262 85.1262 197.262Z" fill="#FF5D66"/>
</svg>
